<svg id="Capa_1" enable-background="new 0 0 512.001 512.001" height="512" viewBox="0 0 512.001 512.001" width="512" xmlns="http://www.w3.org/2000/svg"><g clip-rule="evenodd" fill-rule="evenodd"><circle cx="256.001" cy="256.001" fill="#a0c8ff" r="206.001"/><path d="m280 204.126 33.86 33.86c7.809 7.809 20.472 7.809 28.281 0l48-48c7.809-7.809 7.809-20.472 0-28.281-7.809-7.81-20.472-7.81-28.281 0l-33.859 33.859-33.86-33.859c-7.81-7.81-20.472-7.81-28.281 0l-33.859 33.859-33.86-33.859c-7.809-7.81-20.472-7.81-28.281 0l-48 48c-7.809 7.809-7.809 20.472 0 28.281 7.81 7.809 20.472 7.809 28.281 0l33.859-33.86 33.86 33.86c7.809 7.809 20.472 7.809 28.281 0z" fill="#60a4ff"/><path d="m328.001 307.875-33.86-33.859c-7.81-7.81-20.472-7.81-28.281 0l-33.859 33.859-33.86-33.859c-7.809-7.81-20.472-7.81-28.281 0l-48 48c-7.809 7.81-7.809 20.472 0 28.281 7.81 7.809 20.472 7.809 28.281 0l33.859-33.859 33.86 33.86c7.809 7.809 20.472 7.809 28.281 0l33.859-33.86 33.86 33.86c7.809 7.809 20.472 7.809 28.281 0l48-48c7.809-7.809 7.809-20.472 0-28.281-7.809-7.81-20.472-7.81-28.281 0z" fill="#60a4ff"/><path d="m256.001 50c113.771 0 206.001 92.23 206.001 206.001s-92.23 206.001-206.001 206.001-206.001-92.23-206.001-206.001 92.23-206.001 206.001-206.001zm246 206.001c0-135.863-110.138-246.001-246-246.001s-246.001 110.138-246.001 246.001 110.138 246.001 246.001 246.001 246-110.139 246-246.001z" fill="#60a4ff"/></g><path d="m437.021 74.981c-48.353-48.353-112.64-74.981-181.021-74.981-52.03 0-102.125 15.534-144.868 44.924-4.551 3.129-5.703 9.355-2.574 13.906 3.13 4.552 9.356 5.703 13.906 2.575 39.395-27.088 85.57-41.405 133.536-41.405 130.131 0 236.001 105.87 236.001 236 0 130.131-105.87 236.001-236.001 236.001s-236-105.869-236-236.001c0-47.972 14.315-94.146 41.399-133.529 3.129-4.551 1.977-10.777-2.574-13.906-4.55-3.129-10.776-1.977-13.905 2.573-29.387 42.733-44.92 92.826-44.92 144.862 0 68.38 26.629 132.668 74.98 181.02s112.64 74.981 181.02 74.981c68.381 0 132.668-26.629 181.021-74.981 48.352-48.352 74.98-112.64 74.98-181.02s-26.629-132.667-74.98-181.019z"/><path d="m424.614 374.783c4.663 2.963 10.842 1.585 13.804-3.076 21.971-34.568 33.584-74.579 33.584-115.707 0-57.696-22.468-111.938-63.265-152.735-40.798-40.797-95.04-63.265-152.737-63.265-57.695 0-111.938 22.468-152.735 63.265-40.797 40.797-63.265 95.04-63.265 152.735s22.468 111.938 63.265 152.736 95.04 63.265 152.735 63.265c41.13 0 81.139-11.612 115.701-33.58 4.661-2.962 6.038-9.143 3.075-13.804-2.962-4.662-9.144-6.039-13.804-3.075-31.35 19.926-67.648 30.458-104.973 30.458-108.074 0-196-87.926-196-196.001s87.927-195.999 196.001-195.999c108.075 0 196.001 87.925 196.001 196 0 37.322-10.534 73.623-30.463 104.979-2.963 4.662-1.586 10.842 3.076 13.804z"/><path d="m82.051 92.053c2.415 0 4.838-.869 6.758-2.629 4.071-3.732 4.347-10.058.614-14.129-3.73-4.07-10.057-4.347-14.128-.614l-.006.005c-4.071 3.732-4.344 10.055-.611 14.126 1.972 2.15 4.667 3.241 7.373 3.241z"/><path d="m401.658 411.667c2.721 0 5.433-1.104 7.406-3.275 3.715-4.086 3.414-10.411-.673-14.126s-10.41-3.414-14.126.673l-.005.005c-3.715 4.086-3.411 10.408.675 14.123 1.917 1.741 4.323 2.6 6.723 2.6z"/><path d="m136 253.843c8.013 0 15.546-3.121 21.212-8.786l26.788-26.788 26.789 26.788c5.665 5.666 13.198 8.787 21.212 8.787 8.013 0 15.546-3.121 21.212-8.787l26.787-26.788 26.789 26.788c5.665 5.666 13.198 8.787 21.212 8.787 8.013 0 15.546-3.121 21.212-8.786l48-48.001c11.695-11.696 11.695-30.727 0-42.423-5.666-5.666-13.199-8.786-21.212-8.786-8.014 0-15.547 3.12-21.212 8.786l-26.788 26.789-26.789-26.789c-11.697-11.695-30.727-11.696-42.424 0l-26.787 26.789-26.789-26.789c-11.697-11.695-30.727-11.695-42.424 0l-48 48c-11.696 11.696-11.696 30.728 0 42.424 5.666 5.665 13.2 8.785 21.212 8.785zm-7.069-37.067 48-48c3.897-3.898 10.241-3.898 14.139 0l33.86 33.86c1.876 1.875 4.419 2.929 7.071 2.929s5.196-1.054 7.071-2.929l33.858-33.859c3.897-3.898 10.241-3.898 14.139 0l33.86 33.86c1.876 1.875 4.419 2.929 7.071 2.929s5.195-1.054 7.071-2.929l33.859-33.86c1.888-1.888 4.398-2.928 7.069-2.928s5.182 1.04 7.069 2.928c3.897 3.898 3.897 10.241 0 14.139l-48 48c-1.888 1.889-4.399 2.928-7.069 2.928-2.671 0-5.182-1.04-7.069-2.928l-33.86-33.859c-1.876-1.875-4.419-2.929-7.071-2.929s-5.196 1.054-7.071 2.929l-33.858 33.859c-1.888 1.889-4.399 2.928-7.069 2.928-2.671 0-5.182-1.04-7.069-2.928l-33.86-33.859c-3.906-3.905-10.236-3.905-14.143 0l-33.859 33.859c-3.898 3.898-10.24 3.898-14.139 0-3.899-3.899-3.899-10.242 0-14.14z"/><path d="m114.788 357.369c5.666 5.666 13.199 8.786 21.212 8.786s15.546-3.121 21.212-8.786l26.788-26.789 26.789 26.789c5.665 5.666 13.198 8.787 21.212 8.787 8.013 0 15.546-3.121 21.212-8.787l26.787-26.789 26.789 26.789c5.665 5.666 13.198 8.787 21.212 8.787 8.013 0 15.546-3.121 21.212-8.786l48-48.001c11.695-11.696 11.695-30.727 0-42.423-5.666-5.666-13.199-8.786-21.212-8.786-8.014 0-15.547 3.12-21.212 8.786l-26.788 26.789-26.789-26.789c-11.697-11.695-30.727-11.696-42.424 0l-26.787 26.789-26.789-26.789c-11.697-11.695-30.727-11.695-42.424 0l-48 48c-5.666 5.666-8.786 13.199-8.786 21.212 0 8.011 3.12 15.545 8.786 21.211zm14.143-28.282 48-48c3.897-3.898 10.241-3.898 14.139 0l33.86 33.86c1.876 1.875 4.419 2.929 7.071 2.929s5.196-1.054 7.071-2.929l33.858-33.859c3.897-3.898 10.241-3.898 14.139 0l33.86 33.86c1.876 1.875 4.419 2.929 7.071 2.929s5.195-1.054 7.071-2.929l33.859-33.86c1.888-1.888 4.398-2.928 7.069-2.928s5.182 1.04 7.069 2.928c3.897 3.898 3.897 10.241 0 14.139l-48 48c-1.888 1.889-4.399 2.928-7.069 2.928-2.671 0-5.182-1.04-7.069-2.928l-33.86-33.86c-1.876-1.875-4.419-2.929-7.071-2.929s-5.196 1.054-7.071 2.929l-33.858 33.859c-1.888 1.889-4.399 2.928-7.069 2.928-2.671 0-5.182-1.04-7.069-2.928l-33.86-33.86c-1.876-1.875-4.419-2.929-7.071-2.929s-5.196 1.054-7.071 2.929l-33.859 33.859c-3.898 3.898-10.24 3.898-14.139 0-1.889-1.888-2.929-4.399-2.929-7.069-.001-2.67 1.039-5.18 2.928-7.069z"/></svg>