<?xml version="1.0" encoding="iso-8859-1"?>
<!-- Generator: Adobe Illustrator 19.0.0, SVG Export Plug-In . SVG Version: 6.00 Build 0)  -->
<svg version="1.1" id="Layer_1" xmlns="http://www.w3.org/2000/svg" xmlns:xlink="http://www.w3.org/1999/xlink" x="0px" y="0px"
	 viewBox="0 0 512 512" style="enable-background:new 0 0 512 512;" xml:space="preserve">
<g>
	<g>
		<path d="M256,0C114.599,0,0.166,114.423,0.166,255.834c0,192.294,205.156,316.057,375.061,226.413
			c3.661-1.933,5.063-6.466,3.131-10.128c-1.931-3.66-6.463-5.064-10.127-3.131C208.226,553.41,15.157,436.574,15.157,255.834
			C15.157,123.033,123.199,14.991,256,14.991s240.843,108.042,240.843,240.843c0,80.576-40.038,155.465-107.099,200.329
			c-3.441,2.302-4.364,6.957-2.063,10.397c2.303,3.441,6.959,4.366,10.397,2.063c71.23-47.651,113.755-127.198,113.755-212.788
			C511.834,114.432,397.412,0,256,0z"/>
	</g>
</g>
<g>
	<g>
		<path d="M377.196,73.567c-3.444-2.298-8.099-1.363-10.393,2.082c-2.296,3.445-1.363,8.099,2.082,10.393
			c56.973,37.957,90.986,101.43,90.986,169.793c0,112.415-91.455,203.871-203.87,203.871c-112.414,0-203.87-91.456-203.87-203.871
			c0-151.298,160.2-250.349,295.491-182.174c3.695,1.864,8.204,0.377,10.066-3.32c1.862-3.697,0.376-8.204-3.321-10.066
			c-81.638-41.14-184.192-28.13-253.126,40.803c-85.535,85.535-85.541,223.974,0,309.517c85.537,85.536,223.975,85.542,309.517,0
			C508.664,312.686,491.997,150.048,377.196,73.567z"/>
	</g>
</g>
<g>
	<g>
		<path d="M363.646,241.565c-5.224-19.488-31.167-23.289-41.875-6.334c-13.525-2.429-18.047-21.831-19.016-35.493
			c-2.165-29.958-16.177-55.211-36.191-72.788c-50.789-43.978-128.398-30.379-161.525,26.999
			c-33.25,57.59-5.573,130.32,54.59,152.38c0.999,0,33.968,15.372,74.938-0.161c9.102-3.458,21.077-10.993,34.589-10.993
			c8.293,0,12.598,3.303,14.663,5.789c-8.04,15.239,2.953,33.924,20.407,33.924c8.237,0,15.912-4.427,20.029-11.556l37.082-64.229
			C364.424,253.756,365.244,247.529,363.646,241.565z M115.532,247.964c-13.271-26.495-13.525-58.782,2.489-86.519
			c15.34-26.568,43.225-43.614,73.676-45.401L115.532,247.964z M124.537,262.348c3.679-6.371,80.419-139.289,84.125-145.708
			c3.317,0.423,6.529,1.049,9.751,1.825l-87.422,151.421C128.206,266.842,127.052,265.637,124.537,262.348z M164.825,292.266
			c0,0-0.001-0.001-0.002-0.001c-7.839-2.978-15.252-6.977-22.363-12.26l90.461-156.682c8.554,3.681,16.301,8.571,22.855,14.122
			l-89.656,155.287C164.829,292.272,164.825,292.266,164.825,292.266z M223.943,293.979c-5.408,1.651-10.517,2.8-16.648,3.517
			l48.031-83.191c2.07-3.585,0.842-8.169-2.743-10.239c-3.584-2.069-8.168-0.843-10.239,2.743l-52.55,91.019
			c-0.999-0.105-4.07-0.279-8.672-1.098c3.753-6.5,81.848-141.764,85.611-148.282c2.147,2.589,3.928,4.959,5.287,6.961
			l-16.625,28.795c-2.07,3.585-0.841,8.169,2.743,10.239c3.586,2.068,8.17,0.843,10.239-2.743l12.106-20.969
			c7.15,16.495,7.124,29.566,7.499,33.1c3.323,30.825,16.49,41.379,26.404,44.899c-17.122,29.653-12.403,21.479-22.582,39.111
			C270.155,269.245,238.896,289.351,223.943,293.979z M311.273,315.836c-4.638,8.025-17,3.228-14.945-5.852
			c20.922-36.237,12.454-21.57,39.49-68.396c4.452-4.118,11.756-2.072,13.347,3.857
			C350.382,249.993,351.187,246.699,311.273,315.836z"/>
	</g>
</g>
<g>
	<g>
		<path d="M376.973,357.11l-22.724-30.091c-3-3.971-8.968-3.966-11.964,0l-22.725,30.092c-14.953,19.804-5.761,48.526,17.846,55.989
			c0,0,1.839,0.607,4.043,1.028C374.784,420.019,396.332,382.749,376.973,357.11z M348.691,399.781
			c-4.495,0.123-9.222-1.33-13.062-4.229c-9.238-6.976-11.08-20.168-4.104-29.406l16.743-22.172l16.742,22.172
			C375.086,379.489,366.229,399.332,348.691,399.781z"/>
	</g>
</g>
<g>
	<g>
		<path d="M399.962,291.247l-13.669-18.099c-3-3.972-8.971-3.965-11.964,0l-13.667,18.099c-10.548,13.968-3.51,34.105,13.166,38.602
			l1.944-7.239l-1.811,7.275c4.241,1.143,8.982,1.166,13.696-0.286c0.548,0,4.443-1.552,7.491-3.853
			C406.011,317.543,408.166,302.112,399.962,291.247z M383.499,315.188c-0.001,0.001-0.002,0.001-0.002,0.001
			c-0.625,0.232-1.259,0.349-1.906,0.456l0.11-0.016l0.815,7.451l-0.949-7.436c-5.605,0.625-10.081-3.121-10.794-8.222
			c-0.693-4.978,1.592-6.794,9.539-17.32l7.686,10.179C391.737,305.229,390.024,312.745,383.499,315.188z"/>
	</g>
</g>
<g>
</g>
<g>
</g>
<g>
</g>
<g>
</g>
<g>
</g>
<g>
</g>
<g>
</g>
<g>
</g>
<g>
</g>
<g>
</g>
<g>
</g>
<g>
</g>
<g>
</g>
<g>
</g>
<g>
</g>
</svg>
